<svg width="67" height="61" viewBox="0 0 67 61" fill="none" xmlns="http://www.w3.org/2000/svg">
<g id="&#226;&#128;&#156;">
<path id="&#226;&#128;&#156;_2" fill-rule="evenodd" clip-rule="evenodd" d="M26.4904 56.2676C23.7007 59.1229 20.0143 60.5505 15.4312 60.5505C10.7485 60.5505 7.0621 58.9581 4.37202 55.7734C1.68195 52.5886 0.336914 48.086 0.336914 42.2655C0.336914 38.312 1.18379 33.8094 2.87754 28.7576C4.57129 23.7059 6.83792 18.6542 9.67744 13.6025C12.517 8.55076 15.7799 4.04814 19.4663 0.0946198H30.9739C29.2801 4.48742 27.9849 8.49585 27.0882 12.1199C26.1915 15.744 25.7432 19.0386 25.7432 22.0037C25.7432 25.4081 26.1417 28.3184 26.9387 30.7344C27.7358 33.1504 28.5578 35.5116 29.4046 37.8178C30.2515 40.124 30.675 42.8695 30.675 46.0543C30.675 50.0078 29.2801 53.4122 26.4904 56.2676ZM62.0688 56.2676C59.2791 59.1229 55.5927 60.5505 51.0096 60.5505C46.3269 60.5505 42.6405 58.9581 39.9504 55.7734C37.2603 52.5886 35.9153 48.086 35.9153 42.2655C35.9153 38.312 36.7622 33.8094 38.4559 28.7576C40.1497 23.7059 42.4163 18.6542 45.2558 13.6025C48.0953 8.55076 51.3583 4.04814 55.0447 0.0946198H66.5522C64.8585 4.48742 63.5633 8.49585 62.6666 12.1199C61.7699 15.744 61.3215 19.0386 61.3215 22.0037C61.3215 25.4081 61.7201 28.3184 62.5171 30.7344C63.3142 33.1504 64.1361 35.5116 64.983 37.8178C65.8299 40.124 66.2533 42.8695 66.2533 46.0543C66.2533 50.0078 64.8585 53.4122 62.0688 56.2676Z" fill="#2C6269"/>
</g>
</svg>
